<?xml version="1.0" encoding="utf-8"?>
<!-- Generator: Adobe Illustrator 15.0.2, SVG Export Plug-In . SVG Version: 6.00 Build 0)  -->
<!DOCTYPE svg PUBLIC "-//W3C//DTD SVG 1.0//EN" "http://www.w3.org/TR/2001/REC-SVG-20010904/DTD/svg10.dtd">
<svg version="1.0" id="Layer_1" xmlns="http://www.w3.org/2000/svg" xmlns:xlink="http://www.w3.org/1999/xlink" x="0px" y="0px"
	 width="288px" height="288px" viewBox="0 0 288 288" enable-background="new 0 0 288 288" xml:space="preserve">
<path fill="#231F20" d="M212.76,139.762c-41.553,0-75.239,33.686-75.239,75.24c0,34.345,23.02,63.293,54.467,72.311v-57.655
	c-11.174-6.951-18.615-19.338-18.615-33.466c0-14.503,7.841-27.175,19.513-34.01l0.001,34.01l9.938,17.212h19.875l9.938-17.214
	h0.059l-0.001-33.974c11.641,6.844,19.456,19.496,19.454,33.976c0,14.128-7.439,26.515-18.613,33.466v57.655
	C264.98,278.295,288,249.347,288,215.002C288,173.447,254.314,139.762,212.76,139.762z"/>
<g>
	<rect x="192.001" fill="#231F20" width="46.558" height="43.049"/>
	<path fill="#231F20" d="M192.546,130.743c6.481-1.58,13.246-2.436,20.214-2.436c10.146,0,19.874,1.783,28.896,5.041V60.585h-49.11
		V130.743z"/>
	<rect x="46.892" fill="#231F20" width="46.556" height="43.049"/>
	<path fill="#231F20" d="M132.213,240.847c-22.639-4.613-35.968-22.865-35.968-53.982V60.585H47.137v127.552
		c0,65.691,36.672,99.176,96.621,99.176c8.314,0,16.188-0.662,23.614-1.941C151.08,275.074,138.535,259.406,132.213,240.847z"/>
</g>
</svg>
